<?xml version="1.0" encoding="UTF-8"?>
<svg id="Layer_2" data-name="Layer 2" xmlns="http://www.w3.org/2000/svg" viewBox="0 0 130.15 133">
  <defs>
    <style>
      .cls-1 {
        fill: #fff;
      }
    </style>
  </defs>
  <g id="Layer_1-2" data-name="Layer 1">
    <g>
      <g>
        <path class="cls-1" d="M12.18,41.39c-.04-1.04-.37-1.82-.99-2.34-.62-.52-1.33-.78-2.13-.78-.96,0-1.7.31-2.22.93-.52.62-.78,1.33-.78,2.13,0,.56.14,1.11.42,1.65.28.54,1,1.03,2.16,1.47l3.6,1.44c2.28.88,3.85,2.08,4.71,3.6.86,1.52,1.29,3.18,1.29,4.98,0,1.28-.23,2.47-.69,3.57-.46,1.1-1.09,2.07-1.89,2.91-.8.84-1.76,1.5-2.88,1.98-1.12.48-2.34.72-3.66.72-2.48,0-4.56-.78-6.24-2.34-.84-.76-1.52-1.71-2.04-2.85-.52-1.14-.8-2.47-.84-3.99h5.76c.12.84.41,1.62.87,2.34.46.72,1.27,1.08,2.43,1.08.88,0,1.67-.29,2.37-.87.7-.58,1.05-1.39,1.05-2.43,0-.84-.22-1.56-.66-2.16-.44-.6-1.24-1.12-2.4-1.56l-2.94-1.08c-1.92-.72-3.43-1.79-4.53-3.21-1.1-1.42-1.65-3.15-1.65-5.19,0-1.28.24-2.47.72-3.57.48-1.1,1.14-2.05,1.98-2.85.8-.8,1.74-1.41,2.82-1.83,1.08-.42,2.24-.63,3.48-.63s2.39.22,3.45.66c1.06.44,1.97,1.06,2.73,1.86.76.8,1.36,1.75,1.8,2.85.44,1.1.66,2.27.66,3.51h-5.76Z"/>
        <path class="cls-1" d="M20.7,32.86v30.42h6.12v-30.42h-6.12Z"/>
        <path class="cls-1" d="M36.48,66.83c.04.72.33,1.4.87,2.04.54.64,1.33.96,2.37.96s1.72-.31,2.16-.93c.44-.62.66-1.41.66-2.37v-6h-.12c-.68,1-1.49,1.77-2.43,2.31-.94.54-2.03.81-3.27.81-2.56,0-4.34-.96-5.34-2.88-.36-.68-.62-1.52-.78-2.52-.16-1-.24-2.34-.24-4.02v-11.58c0-2.2.06-3.82.18-4.86.24-2,1.18-3.5,2.82-4.5.76-.52,1.9-.78,3.42-.78.76,0,1.41.08,1.95.24.54.16,1.03.38,1.47.66.44.28.84.61,1.2.99.36.38.74.79,1.14,1.23v-2.76h6.12v34.14c0,1.04-.17,2.09-.51,3.15-.34,1.06-.89,2.01-1.65,2.85-.76.88-1.72,1.59-2.88,2.13-1.16.54-2.54.81-4.14.81-.92,0-1.88-.15-2.88-.45-1-.3-1.92-.81-2.76-1.53-.88-.68-1.63-1.59-2.25-2.73-.62-1.14-1.03-2.61-1.23-4.41h6.12ZM36.48,53.93c0,.96.21,1.8.63,2.52.42.72,1.21,1.08,2.37,1.08.88,0,1.61-.31,2.19-.93.58-.62.87-1.41.87-2.37v-11.82c0-1.12-.28-2.03-.84-2.73-.56-.7-1.3-1.05-2.22-1.05-1.04,0-1.8.38-2.28,1.14-.48.76-.72,1.76-.72,3v11.16Z"/>
        <path class="cls-1" d="M52.2,63.29v-30.42h6.12v2.94h.12c.64-.96,1.41-1.75,2.31-2.37.9-.62,2.05-.93,3.45-.93.76,0,1.52.13,2.28.39.76.26,1.44.69,2.04,1.29.6.6,1.08,1.37,1.44,2.31.36.94.54,2.09.54,3.45v23.34h-6.12v-21.06c0-1.12-.26-2-.78-2.64-.52-.64-1.26-.96-2.22-.96-1.16,0-1.96.36-2.4,1.08-.44.72-.66,1.76-.66,3.12v20.46h-6.12Z"/>
        <path class="cls-1" d="M117.72,27.5c-.41-1.5-1.13-2.81-2.16-3.93-1.05-1.12-2.21-1.9-3.48-2.34-1.29-.44-2.76-.66-4.44-.66h-9.19v42.72h.02v57.99h.01s-8.66.01-8.66.01l11.71,11.71,3.06-3.07,8.64-8.64h-8.65.01v-63.06h-.01v-11.62h3.12c2.27,0,4.11-.39,5.52-1.17,1.39-.78,2.52-1.87,3.36-3.27.72-1.16,1.18-2.4,1.41-3.72.21-1.32.33-2.94.33-4.86,0-2.56-.21-4.59-.6-6.09ZM112.47,36.59c-.06.88-.26,1.62-.58,2.22-.32.64-.82,1.14-1.5,1.5s-1.64.54-2.88.54h-2.93v-14.52h3.18c1.19,0,2.11.18,2.75.54s1.12.88,1.44,1.56.5,1.47.54,2.37c.04.9.07,1.85.07,2.85,0,1.08-.03,2.06-.09,2.94Z"/>
      </g>
      <path class="cls-1" d="M40.84,95.72c-.86-1.52-2.43-2.72-4.71-3.6l-3.6-1.44c-1.16-.44-1.88-.93-2.16-1.47-.28-.54-.42-1.09-.42-1.65,0-.8.26-1.51.78-2.13.52-.62,1.26-.93,2.22-.93.8,0,1.51.26,2.13.78.62.52.95,1.3.99,2.34h5.76c0-1.24-.22-2.41-.66-3.51s-1.04-2.05-1.8-2.85c-.76-.8-1.67-1.42-2.73-1.86s-2.21-.66-3.45-.66-2.4.21-3.48.63-2.02,1.03-2.82,1.83c-.84.8-1.5,1.75-1.98,2.85-.48,1.1-.72,2.29-.72,3.57,0,2.04.55,3.77,1.65,5.19,1.1,1.42,2.61,2.49,4.53,3.21l2.94,1.08c1.16.44,1.96.96,2.4,1.56.44.6.66,1.32.66,2.16,0,1.04-.35,1.85-1.05,2.43s-1.49.87-2.37.87c-1.16,0-1.97-.36-2.43-1.08-.46-.72-.75-1.5-.87-2.34h-5.76c.04,1.52.32,2.85.84,3.99.52,1.14,1.2,2.09,2.04,2.85,1.68,1.56,3.76,2.34,6.24,2.34,1.32,0,2.54-.24,3.66-.72,1.12-.48,2.08-1.14,2.88-1.98.8-.84,1.43-1.81,1.89-2.91.46-1.1.69-2.29.69-3.57,0-1.8-.43-3.46-1.29-4.98Z"/>
      <path class="cls-1" d="M44.59,79.1v30.42h6.12v-30.42h-6.12Z"/>
      <path class="cls-1" d="M66.43,79.1v2.76c-.4-.44-.78-.85-1.14-1.23-.36-.38-.76-.71-1.2-.99-.44-.28-.93-.5-1.47-.66-.54-.16-1.19-.24-1.95-.24-1.52,0-2.66.26-3.42.78-1.64,1-2.58,2.5-2.82,4.5-.12,1.04-.18,2.66-.18,4.86v11.58c0,1.68.08,3.02.24,4.02.16,1,.42,1.84.78,2.52,1,1.92,2.78,2.88,5.34,2.88,1.24,0,2.33-.27,3.27-.81.94-.54,1.75-1.31,2.43-2.31h.12v6c0,.96-.22,1.75-.66,2.37s-1.16.93-2.16.93-1.83-.33-2.37-.96c-.54-.64-.83-1.32-.87-2.04h-6.12c.2,1.8.61,3.27,1.23,4.41.62,1.14,1.37,2.05,2.25,2.73.84.72,1.76,1.23,2.76,1.53s1.96.45,2.88.45c1.6,0,2.98-.27,4.14-.81,1.16-.54,2.12-1.25,2.88-2.13.76-.84,1.31-1.8,1.65-2.85.34-1.06.51-2.11.51-3.15v-34.14h-6.12ZM66.43,100.46c0,.96-.29,1.75-.87,2.37-.58.62-1.31.93-2.19.93-1.16,0-1.95-.36-2.37-1.08-.42-.72-.63-1.56-.63-2.52v-11.16c0-1.24.24-2.24.72-3s1.24-1.14,2.28-1.14c.92,0,1.66.35,2.22,1.05s.84,1.61.84,2.73v11.82Z"/>
      <path class="cls-1" d="M76.1,109.52v-30.42h6.12v2.94h.12c.64-.96,1.41-1.75,2.31-2.37.9-.62,2.05-.93,3.45-.93.76,0,1.52.13,2.28.39.76.26,1.44.69,2.04,1.29s1.08,1.37,1.44,2.31c.36.94.54,2.09.54,3.45v23.34h-6.12v-21.06c0-1.12-.26-2-.78-2.64-.52-.64-1.26-.96-2.22-.96-1.16,0-1.96.36-2.4,1.08-.44.72-.66,1.76-.66,3.12v20.46h-6.12Z"/>
      <path class="cls-1" d="M74.44,11.71h0s.01,0,.01,0h-.01ZM80.55,11.71h0s0,0,0,0h0Z"/>
      <path class="cls-1" d="M80.55,11.71h0s0,0,0,0h0Z"/>
      <path class="cls-1" d="M74.44,11.71h0s.01,0,.01,0h-.01Z"/>
      <path class="cls-1" d="M88.08,20.57v32.52c0,1.52-.36,2.64-1.08,3.36s-1.62,1.08-2.7,1.08-1.98-.36-2.7-1.08-1.08-1.84-1.08-3.36v-27.4h.01v-13.97h-.01s8.66-.01,8.66-.01L77.47,0l-3.06,3.07-1.26,1.26-7.38,7.38h8.65-.01v8.86h-.01v33.12c0,1.4.26,2.69.78,3.87.51,1.18,1.23,2.23,2.16,3.15.92.92,1.97,1.64,3.15,2.16,1.17.52,2.45.78,3.81.78s2.64-.26,3.84-.78,2.25-1.24,3.18-2.16c.92-.92,1.62-1.97,2.13-3.15.5-1.18.75-2.47.75-3.87V20.57h-6.12ZM74.44,11.71h.01-.01s0,0,0,0Z"/>
      <polygon class="cls-1" points="74.45 11.71 74.44 11.72 74.44 11.71 74.45 11.71"/>
      <path class="cls-1" d="M74.44,11.71h0s.01,0,.01,0h-.01ZM80.55,11.71h0s0,0,0,0h0Z"/>
      <path class="cls-1" d="M104.56,121.29h0s-.01,0-.01,0h.01Z"/>
      <path class="cls-1" d="M108.8,109.52v-42.72h5.88l9.24,25.74h.12v-25.74h6.12v42.72h-5.76l-9.36-25.68h-.12v25.68h-6.12Z"/>
    </g>
  </g>
</svg>